<svg width="2732" height="2048" viewBox="0 0 2732 2048" fill="none" xmlns="http://www.w3.org/2000/svg">
  <defs>
    <linearGradient id="bg3" x1="0" y1="0" x2="2732" y2="2048" gradientUnits="userSpaceOnUse">
      <stop stop-color="#1F2D40"/>
      <stop offset="0.5" stop-color="#25364A"/>
      <stop offset="1" stop-color="#2F2F2F"/>
    </linearGradient>
  </defs>
  <rect width="2732" height="2048" rx="100" fill="url(#bg3)"/>
  <rect x="80" y="80" width="2572" height="1888" rx="60" fill="#10151F" stroke="white" stroke-opacity="0.18" stroke-width="8"/>
  <rect x="140" y="140" width="2452" height="130" rx="30" fill="#182233"/>
  <text x="220" y="223" fill="white" font-size="56" font-family="Montserrat, sans-serif" font-weight="700">CosmoRemote Workspace</text>
  <rect x="140" y="320" width="520" height="1588" rx="34" fill="#161E2D" stroke="white" stroke-opacity="0.12"/>
  <text x="190" y="410" fill="#D6EEFF" font-size="42" font-family="Montserrat, sans-serif" font-weight="600">Threads</text>
  <rect x="190" y="460" width="420" height="110" rx="18" fill="#3498DB" fill-opacity="0.24"/>
  <rect x="190" y="590" width="420" height="110" rx="18" fill="white" fill-opacity="0.08"/>
  <rect x="190" y="720" width="420" height="110" rx="18" fill="white" fill-opacity="0.08"/>
  <rect x="190" y="850" width="420" height="110" rx="18" fill="white" fill-opacity="0.08"/>
  <rect x="710" y="320" width="1840" height="990" rx="34" fill="#141B28" stroke="white" stroke-opacity="0.12"/>
  <text x="770" y="410" fill="white" font-size="46" font-family="Montserrat, sans-serif" font-weight="600">Streaming Output</text>
  <rect x="770" y="460" width="1720" height="32" rx="16" fill="white" fill-opacity="0.16"/>
  <rect x="770" y="520" width="1640" height="32" rx="16" fill="#2ECC71" fill-opacity="0.3"/>
  <rect x="770" y="580" width="1520" height="32" rx="16" fill="#9B59B6" fill-opacity="0.3"/>
  <rect x="710" y="1360" width="1840" height="548" rx="34" fill="#141B28" stroke="white" stroke-opacity="0.12"/>
  <text x="770" y="1450" fill="white" font-size="44" font-family="Montserrat, sans-serif" font-weight="600">Project History</text>
  <rect x="770" y="1510" width="1720" height="92" rx="20" fill="white" fill-opacity="0.08"/>
  <rect x="770" y="1630" width="1720" height="92" rx="20" fill="white" fill-opacity="0.08"/>
  <rect x="770" y="1750" width="1720" height="92" rx="20" fill="white" fill-opacity="0.08"/>
</svg>
