<svg width="1290" height="2796" viewBox="0 0 1290 2796" fill="none" xmlns="http://www.w3.org/2000/svg">
  <defs>
    <linearGradient id="bg2" x1="40" y1="0" x2="1240" y2="2796" gradientUnits="userSpaceOnUse">
      <stop stop-color="#1F2233"/>
      <stop offset="0.45" stop-color="#26384B"/>
      <stop offset="1" stop-color="#232323"/>
    </linearGradient>
  </defs>
  <rect width="1290" height="2796" rx="150" fill="url(#bg2)"/>
  <rect x="110" y="220" width="1070" height="2350" rx="72" fill="#0F141E" stroke="white" stroke-opacity="0.2" stroke-width="8"/>
  <text x="190" y="390" fill="white" font-size="52" font-family="Montserrat, sans-serif" font-weight="700">QR Pairing</text>
  <text x="190" y="450" fill="#CFE8FF" font-size="34" font-family="Montserrat, sans-serif">Scan once. Connect securely.</text>
  <rect x="170" y="560" width="950" height="850" rx="46" fill="#141E2B" stroke="white" stroke-opacity="0.12"/>
  <rect x="305" y="695" width="680" height="580" rx="36" fill="white" fill-opacity="0.08"/>
  <rect x="365" y="755" width="560" height="460" rx="22" fill="#0F1118"/>
  <g fill="white" fill-opacity="0.85">
    <rect x="405" y="795" width="50" height="50" rx="6"/>
    <rect x="475" y="795" width="50" height="50" rx="6"/>
    <rect x="545" y="795" width="50" height="50" rx="6"/>
    <rect x="615" y="795" width="50" height="50" rx="6"/>
    <rect x="755" y="795" width="50" height="50" rx="6"/>
    <rect x="825" y="795" width="50" height="50" rx="6"/>
    <rect x="405" y="865" width="50" height="50" rx="6"/>
    <rect x="615" y="865" width="50" height="50" rx="6"/>
    <rect x="685" y="865" width="50" height="50" rx="6"/>
    <rect x="825" y="865" width="50" height="50" rx="6"/>
    <rect x="405" y="935" width="50" height="50" rx="6"/>
    <rect x="475" y="935" width="50" height="50" rx="6"/>
    <rect x="545" y="935" width="50" height="50" rx="6"/>
    <rect x="685" y="935" width="50" height="50" rx="6"/>
    <rect x="755" y="935" width="50" height="50" rx="6"/>
    <rect x="825" y="935" width="50" height="50" rx="6"/>
    <rect x="405" y="1005" width="50" height="50" rx="6"/>
    <rect x="545" y="1005" width="50" height="50" rx="6"/>
    <rect x="615" y="1005" width="50" height="50" rx="6"/>
    <rect x="755" y="1005" width="50" height="50" rx="6"/>
    <rect x="405" y="1075" width="50" height="50" rx="6"/>
    <rect x="475" y="1075" width="50" height="50" rx="6"/>
    <rect x="615" y="1075" width="50" height="50" rx="6"/>
    <rect x="685" y="1075" width="50" height="50" rx="6"/>
    <rect x="825" y="1075" width="50" height="50" rx="6"/>
  </g>
  <rect x="170" y="1470" width="950" height="720" rx="40" fill="#151C28" stroke="white" stroke-opacity="0.12"/>
  <rect x="220" y="1550" width="850" height="95" rx="22" fill="#3498DB" fill-opacity="0.26"/>
  <text x="260" y="1610" fill="white" font-size="34" font-family="Montserrat, sans-serif" font-weight="600">Bridge found: MacBook Pro · online</text>
  <rect x="220" y="1690" width="850" height="95" rx="22" fill="#2ECC71" fill-opacity="0.24"/>
  <text x="260" y="1750" fill="white" font-size="34" font-family="Montserrat, sans-serif" font-weight="600">Secure token validated</text>
  <rect x="220" y="1830" width="850" height="95" rx="22" fill="#9B59B6" fill-opacity="0.24"/>
  <text x="260" y="1890" fill="white" font-size="34" font-family="Montserrat, sans-serif" font-weight="600">Ready to start session</text>
</svg>
