<svg width="1290" height="2796" viewBox="0 0 1290 2796" fill="none" xmlns="http://www.w3.org/2000/svg">
  <defs>
    <linearGradient id="bg" x1="60" y1="0" x2="1230" y2="2796" gradientUnits="userSpaceOnUse">
      <stop stop-color="#1D2F43"/>
      <stop offset="0.5" stop-color="#243B55"/>
      <stop offset="1" stop-color="#1B1F2A"/>
    </linearGradient>
    <linearGradient id="card" x1="120" y1="380" x2="1170" y2="2350" gradientUnits="userSpaceOnUse">
      <stop stop-color="#3498DB" stop-opacity="0.24"/>
      <stop offset="1" stop-color="#9B59B6" stop-opacity="0.26"/>
    </linearGradient>
  </defs>
  <rect width="1290" height="2796" rx="150" fill="url(#bg)"/>
  <rect x="110" y="220" width="1070" height="2350" rx="72" fill="#10151F" stroke="white" stroke-opacity="0.18" stroke-width="8"/>
  <rect x="160" y="300" width="970" height="210" rx="34" fill="#182332"/>
  <text x="200" y="390" fill="white" font-size="50" font-family="Montserrat, sans-serif" font-weight="700">CosmoRemote</text>
  <text x="200" y="450" fill="#CFE8FF" font-size="36" font-family="Montserrat, sans-serif">Live token streaming</text>
  <rect x="160" y="560" width="970" height="1780" rx="44" fill="url(#card)" stroke="white" stroke-opacity="0.14"/>
  <rect x="210" y="640" width="880" height="94" rx="24" fill="white" fill-opacity="0.08"/>
  <text x="250" y="700" fill="#9BD7FF" font-size="36" font-family="monospace">$ cosmoremote start --project bridge</text>
  <rect x="210" y="770" width="840" height="26" rx="13" fill="white" fill-opacity="0.22"/>
  <rect x="210" y="820" width="760" height="26" rx="13" fill="white" fill-opacity="0.18"/>
  <rect x="210" y="870" width="700" height="26" rx="13" fill="#2ECC71" fill-opacity="0.33"/>
  <rect x="210" y="920" width="780" height="26" rx="13" fill="#9B59B6" fill-opacity="0.33"/>
  <rect x="210" y="970" width="820" height="26" rx="13" fill="white" fill-opacity="0.19"/>
  <rect x="210" y="1120" width="270" height="150" rx="24" fill="white" fill-opacity="0.1"/>
  <rect x="510" y="1120" width="270" height="150" rx="24" fill="white" fill-opacity="0.1"/>
  <rect x="810" y="1120" width="270" height="150" rx="24" fill="white" fill-opacity="0.1"/>
  <text x="235" y="1206" fill="white" fill-opacity="0.75" font-size="30" font-family="Montserrat, sans-serif">Connected</text>
  <text x="535" y="1206" fill="white" fill-opacity="0.75" font-size="30" font-family="Montserrat, sans-serif">Codex</text>
  <text x="835" y="1206" fill="white" fill-opacity="0.75" font-size="30" font-family="Montserrat, sans-serif">relay:on</text>
  <rect x="210" y="1360" width="880" height="860" rx="26" fill="#0E1118" stroke="white" stroke-opacity="0.1"/>
  <rect x="250" y="1420" width="800" height="20" rx="10" fill="white" fill-opacity="0.12"/>
  <rect x="250" y="1460" width="750" height="20" rx="10" fill="white" fill-opacity="0.12"/>
  <rect x="250" y="1500" width="690" height="20" rx="10" fill="white" fill-opacity="0.12"/>
  <rect x="250" y="1560" width="800" height="20" rx="10" fill="#3498DB" fill-opacity="0.38"/>
  <rect x="250" y="1600" width="730" height="20" rx="10" fill="#2ECC71" fill-opacity="0.38"/>
  <rect x="250" y="1640" width="650" height="20" rx="10" fill="#9B59B6" fill-opacity="0.38"/>
  <text x="250" y="1780" fill="white" fill-opacity="0.75" font-size="34" font-family="Montserrat, sans-serif">Project: CosmoRemote / bridge</text>
  <text x="250" y="1836" fill="white" fill-opacity="0.55" font-size="30" font-family="Montserrat, sans-serif">Session ID: cr-8f21 · status: streaming</text>
</svg>
